<svg width="1376" height="100" viewBox="0 0 1376 100" fill="none" xmlns="http://www.w3.org/2000/svg">
<g filter="url(#filter0_b_965_34701)">
<path d="M76.5023 68.5791C76.1485 68.5791 75.7908 68.4924 75.4688 68.3113C72.4042 66.6184 68.9342 64.4649 66.438 61.3704C64.7685 59.2995 63.2382 56.8231 63.3376 52.7365C63.4012 50.2049 65.3489 44.9766 70.9773 44.9766C73.6245 44.9766 75.3575 46.2089 76.5023 47.6774C77.647 46.2128 79.3801 44.9766 82.0273 44.9766C87.6557 44.9766 89.6034 50.2049 89.667 52.7365C89.7664 56.8231 88.236 59.2995 86.5666 61.3704C84.0704 64.4649 80.6004 66.6145 77.5358 68.3113C77.2138 68.4885 76.8561 68.5791 76.5023 68.5791ZM70.9773 49.1734C67.9087 49.1734 67.5748 52.8309 67.5708 52.8664C67.4993 55.7207 68.5605 57.2798 69.745 58.7522C71.5337 60.9688 73.9981 62.6302 76.4983 64.0672C78.9985 62.6302 81.4629 60.9688 83.2516 58.7522C84.4361 57.2837 85.4974 55.7247 85.4258 52.8388C85.4258 52.8309 85.088 49.1734 82.0234 49.1734C80.3817 49.1734 78.3983 52.2207 76.4983 52.2207C74.332 52.2207 72.6189 49.1734 70.9773 49.1734Z" fill="#6D64FF"/>
<path d="M120.158 55.2326H112.975V62.961H108.356V44.1892H112.975V51.5436H120.158V44.1892H124.777V62.9649H120.158V55.2326Z" fill="#545C81"/>
<path d="M134.797 63.1774C130.369 63.1774 127.182 60.2365 127.182 55.5002C127.182 50.7679 130.314 47.823 134.797 47.823C139.198 47.823 142.306 50.7128 142.306 55.2561C142.306 55.6852 142.278 56.138 142.226 56.5947H131.777C131.94 58.5475 133.152 59.4569 134.638 59.4569C135.934 59.4569 136.666 58.8152 137.043 58.012H141.956C141.221 60.9294 138.55 63.1774 134.797 63.1774ZM131.8 54.0593H137.58C137.58 52.4293 136.284 51.4923 134.746 51.4923C133.231 51.4923 132.067 52.3978 131.8 54.0593Z" fill="#545C81"/>
<path d="M150.458 47.8269C152.7 47.8269 154.294 48.8427 155.101 50.1537V48.0395H159.72V62.9648H155.101V60.8506C154.262 62.1616 152.672 63.1774 150.431 63.1774C146.758 63.1774 143.816 60.1813 143.816 55.4766C143.816 50.7718 146.762 47.8269 150.458 47.8269ZM151.81 51.8112C150.081 51.8112 148.515 53.0947 148.515 55.4766C148.515 57.8585 150.081 59.1931 151.81 59.1931C153.567 59.1931 155.105 57.8821 155.105 55.5002C155.105 53.1222 153.563 51.8112 151.81 51.8112Z" fill="#545C81"/>
<path d="M163.07 43.1733H167.689V62.9648H163.07V43.1733Z" fill="#545C81"/>
<path d="M171.767 51.8389H169.931V48.0397H171.767V44.4019H176.386V48.0397H179.411V51.8389H176.386V57.8311C176.386 58.713 176.763 59.087 177.789 59.087H179.435V62.965H177.085C173.953 62.965 171.767 61.6539 171.767 57.7759V51.8389V51.8389Z" fill="#545C81"/>
<path d="M182.002 43.1733H186.621V50.0474C187.539 48.7639 189.185 47.882 191.263 47.882C194.694 47.882 196.987 50.2364 196.987 54.2482V62.9687H192.396V54.8663C192.396 52.8348 191.263 51.7088 189.507 51.7088C187.75 51.7088 186.617 52.8309 186.617 54.8663V62.9687H181.998V43.1733H182.002Z" fill="#545C81"/>
<path d="M216.862 53.6855C216.862 59.4611 213.055 62.9651 206.87 62.9651H201.011V44.3232H206.87C213.055 44.3232 216.862 47.9059 216.862 53.6855ZM206.87 60.9572C211.783 60.9572 214.35 58.2288 214.35 53.6816C214.35 49.1343 211.783 46.2996 206.87 46.2996H203.467V60.9572H206.87V60.9572Z" fill="#545C81"/>
<path d="M231.228 58.8193H223.02L221.51 62.965H218.918L225.723 44.4294H228.557L235.334 62.965H232.742L231.228 58.8193ZM227.126 47.4255L223.724 56.839H230.528L227.126 47.4255Z" fill="#545C81"/>
<path d="M246.837 63.1499C241.542 63.1499 237.385 59.2168 237.385 53.6262C237.385 48.0356 241.542 44.1064 246.837 44.1064C252.155 44.1064 256.289 48.0395 256.289 53.6262C256.289 59.2128 252.159 63.1499 246.837 63.1499ZM246.837 61.0396C250.808 61.0396 253.777 58.1774 253.777 53.6301C253.777 49.0553 250.808 46.2206 246.837 46.2206C242.866 46.2206 239.897 49.0553 239.897 53.6301C239.897 58.1774 242.87 61.0396 246.837 61.0396Z" fill="#545C81"/>
<path d="M59.3704 62.2602V48.2719C59.3704 47.9058 59.1716 47.5672 58.8536 47.3821L56.4846 46.0278C55.6976 45.579 54.7158 46.142 54.7158 47.0396V66.8547C54.7158 67.713 55.1769 68.5082 55.9281 68.9374L73.2545 78.8429C74.0415 79.2918 75.0233 78.7288 75.0233 77.8311V75.1185C75.0233 74.7524 74.8246 74.4138 74.5066 74.2287L62.272 67.2405C60.4754 66.2129 59.3704 64.3153 59.3704 62.2602Z" fill="#6D64FF"/>
<path d="M90.7316 67.2406L78.505 74.2327C78.1831 74.4178 77.9883 74.7564 77.9883 75.1225V77.8351C77.9883 78.7367 78.9701 79.2958 79.7571 78.8469L97.0835 68.9414C97.8347 68.5122 98.2958 67.717 98.2958 66.8587V47.2405C98.2958 46.3783 97.3816 45.8113 96.5985 46.1893L94.2176 47.3389C93.8599 47.5121 93.6373 47.8704 93.6373 48.2602V62.2602C93.6333 64.3154 92.5283 66.213 90.7316 67.2406Z" fill="#25CCDE"/>
<path d="M57.9633 43.4844L60.3324 44.8387C60.6543 45.0238 61.0478 45.0238 61.3698 44.8387L73.5964 37.8466C75.3931 36.819 77.607 36.819 79.4037 37.8466L91.6065 44.823C91.9046 44.9923 92.2703 45.008 92.5803 44.8584L95.1401 43.6222C95.629 43.386 95.8397 42.8938 95.784 42.4332H95.7999V39.2599H92.5962V40.067V42.4332H89.3925V39.2599H91.1851H92.5962V36.0867V32.9135H89.3925V36.0867H86.1887V36.4017V39.2599H82.985V36.0867H86.1887V32.9135H82.985V34.5709V36.0867H79.7813V32.9135H76.5776V31.2363V29.7441H73.3738V32.6418V32.9174H70.1701V34.4725V36.0867V39.2599H66.9664V36.3032V36.0867H63.7785V38.134V39.2599H60.5748H57.3711V42.4332H57.3751C57.3631 42.8387 57.5539 43.2521 57.9633 43.4844Z" fill="#6D64FF"/>
<path d="M63.7789 32.9175H60.5752V36.0907H63.7789V32.9175Z" fill="#25CCDE"/>
<path d="M70.1861 29.7441H66.9824V32.9174H70.1861V29.7441Z" fill="#6D64FF"/>
<path d="M82.5751 26.9841H80.2061V29.3306H82.5751V26.9841Z" fill="#6D64FF"/>
<path d="M79.0138 27.3425H77.3682V28.9725H79.0138V27.3425Z" fill="#25CCDE"/>
<path d="M76.1475 23.8386H73.8262V26.1378H76.1475V23.8386Z" fill="#6D64FF"/>
<path d="M79.0138 21H77.3682V22.6299H79.0138V21Z" fill="#25CCDE"/>
</g>
<defs>
<filter id="filter0_b_965_34701" x="-10" y="-10" width="1396" height="120" filterUnits="userSpaceOnUse" color-interpolation-filters="sRGB">
<feFlood flood-opacity="0" result="BackgroundImageFix"/>
<feGaussianBlur in="BackgroundImageFix" stdDeviation="5"/>
<feComposite in2="SourceAlpha" operator="in" result="effect1_backgroundBlur_965_34701"/>
<feBlend mode="normal" in="SourceGraphic" in2="effect1_backgroundBlur_965_34701" result="shape"/>
</filter>
</defs>
</svg>
